REM DIRINDEX 1\6,1\2\7,1\2\8,1\2\9,1\3\10,1\3\11,1\4\12,1\4\13,1\4\14,1\5\15,1\5\16,1\5\17
REM DIRNAME folder01,folder02,folder03,folder04,folder05,folder06,folder07,folder08,folder09,folder10,folder11,folder12,folder13,folder14,folder15,folder16,folder17
TITLE ""
FILE "3Q_t_0561-0576.mp3" MP3
  TRACK 01 AUDIO
    TITLE "10:cjc041_2730"
    INDEX 01 00:00:00
  TRACK 02 AUDIO
    TITLE "0:"
    INDEX 01 00:01:07
  TRACK 03 AUDIO
    TITLE "11:cjc041_2731"
    INDEX 01 00:01:64
  TRACK 04 AUDIO
    TITLE "0:"
    INDEX 01 00:03:10
  TRACK 05 AUDIO
    TITLE "10:cjc041_2732"
    INDEX 01 00:03:63
  TRACK 06 AUDIO
    TITLE "0:"
    INDEX 01 00:04:70
  TRACK 07 AUDIO
    TITLE "11:cjc041_2733"
    INDEX 01 00:05:48
  TRACK 08 AUDIO
    TITLE "0:"
    INDEX 01 00:09:26
  TRACK 09 AUDIO
    TITLE "10:cjc041_2734"
    INDEX 01 00:10:02
  TRACK 10 AUDIO
    TITLE "0:"
    INDEX 01 00:11:11
  TRACK 11 AUDIO
    TITLE "11:cjc041_2735"
    INDEX 01 00:11:64
  TRACK 12 AUDIO
    TITLE "0:"
    INDEX 01 00:13:14
  TRACK 13 AUDIO
    TITLE "10:cjc041_2736"
    INDEX 01 00:13:65
  TRACK 14 AUDIO
    TITLE "0:"
    INDEX 01 00:15:05
  TRACK 15 AUDIO
    TITLE "11:cjc041_2737"
    INDEX 01 00:15:56
  TRACK 16 AUDIO
    TITLE "0:"
    INDEX 01 00:17:04
  TRACK 17 AUDIO
    TITLE "10:cjc041_2738"
    INDEX 01 00:17:57
  TRACK 18 AUDIO
    TITLE "0:"
    INDEX 01 00:19:01
  TRACK 19 AUDIO
    TITLE "11:cjc041_2739"
    INDEX 01 00:19:48
  TRACK 20 AUDIO
    TITLE "0:"
    INDEX 01 00:22:03
  TRACK 21 AUDIO
    TITLE "10:cjc041_2740"
    INDEX 01 00:22:56
  TRACK 22 AUDIO
    TITLE "0:"
    INDEX 01 00:23:69
  TRACK 23 AUDIO
    TITLE "11:cjc041_2741"
    INDEX 01 00:24:43
  TRACK 24 AUDIO
    TITLE "0:"
    INDEX 01 00:26:07
  TRACK 25 AUDIO
    TITLE "10:cjc041_2742"
    INDEX 01 00:26:62
  TRACK 26 AUDIO
    TITLE "0:"
    INDEX 01 00:27:69
  TRACK 27 AUDIO
    TITLE "11:cjc041_2743"
    INDEX 01 00:28:47
  TRACK 28 AUDIO
    TITLE "0:"
    INDEX 01 00:31:16
  TRACK 29 AUDIO
    TITLE "10:cjc041_2744"
    INDEX 01 00:31:65
  TRACK 30 AUDIO
    TITLE "0:"
    INDEX 01 00:33:01
  TRACK 31 AUDIO
    TITLE "11:cjc041_2745"
    INDEX 01 00:33:54
  TRACK 32 AUDIO
    TITLE "0:"
    INDEX 01 00:34:59
  TRACK 33 AUDIO
    TITLE "10:cjc041_2746"
    INDEX 01 00:35:41
  TRACK 34 AUDIO
    TITLE "0:"
    INDEX 01 00:36:60
  TRACK 35 AUDIO
    TITLE "11:cjc041_2747"
    INDEX 01 00:37:38
  TRACK 36 AUDIO
    TITLE "0:"
    INDEX 01 00:38:49
  TRACK 37 AUDIO
    TITLE "10:cjc041_2748"
    INDEX 01 00:39:33
  TRACK 38 AUDIO
    TITLE "0:"
    INDEX 01 00:40:58
  TRACK 39 AUDIO
    TITLE "11:cjc041_2749"
    INDEX 01 00:41:38
  TRACK 40 AUDIO
    TITLE "0:"
    INDEX 01 00:44:73
  TRACK 41 AUDIO
    TITLE "10:cjc041_2750"
    INDEX 01 00:45:53
  TRACK 42 AUDIO
    TITLE "0:"
    INDEX 01 00:46:60
  TRACK 43 AUDIO
    TITLE "11:cjc041_2751"
    INDEX 01 00:47:38
  TRACK 44 AUDIO
    TITLE "0:"
    INDEX 01 00:48:69
  TRACK 45 AUDIO
    TITLE "10:cjc041_2752"
    INDEX 01 00:49:41
  TRACK 46 AUDIO
    TITLE "0:"
    INDEX 01 00:50:64
  TRACK 47 AUDIO
    TITLE "11:cjc041_2753"
    INDEX 01 00:51:44
  TRACK 48 AUDIO
    TITLE "0:"
    INDEX 01 00:53:70
  TRACK 49 AUDIO
    TITLE "10:cjc041_2754"
    INDEX 01 00:54:52
  TRACK 50 AUDIO
    TITLE "0:"
    INDEX 01 00:55:61
  TRACK 51 AUDIO
    TITLE "11:cjc041_2755"
    INDEX 01 00:56:41
  TRACK 52 AUDIO
    TITLE "0:"
    INDEX 01 00:59:06
  TRACK 53 AUDIO
    TITLE "10:cjc041_2756"
    INDEX 01 00:59:59
  TRACK 54 AUDIO
    TITLE "0:"
    INDEX 01 01:01:07
  TRACK 55 AUDIO
    TITLE "11:cjc041_2757"
    INDEX 01 01:01:64
  TRACK 56 AUDIO
    TITLE "0:"
    INDEX 01 01:03:02
  TRACK 57 AUDIO
    TITLE "10:cjc041_2758"
    INDEX 01 01:03:61
  TRACK 58 AUDIO
    TITLE "0:"
    INDEX 01 01:04:72
  TRACK 59 AUDIO
    TITLE "11:cjc041_2759"
    INDEX 01 01:05:52
  TRACK 60 AUDIO
    TITLE "0:"
    INDEX 01 01:08:09
  TRACK 61 AUDIO
    TITLE "10:cjc041_2760"
    INDEX 01 01:08:64
  TRACK 62 AUDIO
    TITLE "0:"
    INDEX 01 01:09:69
  TRACK 63 AUDIO
    TITLE "11:cjc041_2761"
    INDEX 01 01:10:55
  TRACK 64 AUDIO
    TITLE "0:"
    INDEX 01 01:15:07
